<svg width="11" height="16" viewBox="0 0 11 16" fill="none" xmlns="http://www.w3.org/2000/svg">
<path d="M1.75781 15.3281C1.1849 15.3281 0.747396 15.1719 0.445312 14.8594C0.148438 14.5469 0 14.0833 0 13.4688V8.08594C0 7.47135 0.148438 7.01042 0.445312 6.70312C0.747396 6.39062 1.1849 6.23438 1.75781 6.23438H8.90625C9.47917 6.23438 9.91406 6.39062 10.2109 6.70312C10.513 7.01042 10.6641 7.47135 10.6641 8.08594V13.4688C10.6641 14.0833 10.513 14.5469 10.2109 14.8594C9.91406 15.1719 9.47917 15.3281 8.90625 15.3281H1.75781ZM1.36719 6.83594V4.36719C1.36719 3.38802 1.55469 2.57552 1.92969 1.92969C2.3099 1.28385 2.80208 0.802083 3.40625 0.484375C4.01042 0.161458 4.65104 0 5.32812 0C6.01042 0 6.65365 0.161458 7.25781 0.484375C7.86198 0.802083 8.35156 1.28385 8.72656 1.92969C9.10677 2.57552 9.29688 3.38802 9.29688 4.36719V6.83594H8.0625V4.19531C8.0625 3.53906 7.9349 2.98698 7.67969 2.53906C7.42969 2.09115 7.09635 1.7526 6.67969 1.52344C6.26823 1.29427 5.81771 1.17969 5.32812 1.17969C4.84375 1.17969 4.39323 1.29427 3.97656 1.52344C3.5651 1.7526 3.23438 2.09115 2.98438 2.53906C2.73438 2.98698 2.60938 3.53906 2.60938 4.19531V6.83594H1.36719Z" fill="#5D5D5D"/>
</svg>
