<svg width="13" height="12" viewBox="0 0 13 12" fill="none" xmlns="http://www.w3.org/2000/svg">
<path d="M1.59961 11.1328C1.26758 11.1328 0.982422 11.0625 0.744141 10.9219C0.505859 10.7812 0.322266 10.5898 0.193359 10.3477C0.0644531 10.1094 0 9.8418 0 9.54492C0 9.25977 0.0761719 8.98633 0.228516 8.72461L4.77539 0.802734C4.92383 0.537109 5.12109 0.337891 5.36719 0.205078C5.61328 0.0683594 5.87109 0 6.14062 0C6.41016 0 6.66602 0.0683594 6.9082 0.205078C7.1543 0.337891 7.35352 0.537109 7.50586 0.802734L12.0527 8.72461C12.127 8.85352 12.1836 8.98828 12.2227 9.12891C12.2617 9.26953 12.2812 9.4082 12.2812 9.54492C12.2812 9.8418 12.2168 10.1094 12.0879 10.3477C11.959 10.5898 11.7754 10.7812 11.5371 10.9219C11.2988 11.0625 11.0137 11.1328 10.6816 11.1328H1.59961ZM6.14648 7.21289C6.45117 7.21289 6.60547 7.05273 6.60938 6.73242L6.69727 3.54492C6.70117 3.39258 6.64844 3.26562 6.53906 3.16406C6.43359 3.05859 6.30078 3.00586 6.14062 3.00586C5.97656 3.00586 5.8418 3.05664 5.73633 3.1582C5.63477 3.25977 5.58594 3.38672 5.58984 3.53906L5.66602 6.73242C5.67383 7.05273 5.83398 7.21289 6.14648 7.21289ZM6.14648 9.17578C6.32227 9.17578 6.47461 9.11523 6.60352 8.99414C6.73633 8.87305 6.80273 8.72461 6.80273 8.54883C6.80273 8.37305 6.73633 8.22461 6.60352 8.10352C6.47461 7.97852 6.32227 7.91602 6.14648 7.91602C5.9668 7.91602 5.8125 7.97852 5.68359 8.10352C5.55469 8.22852 5.49023 8.37695 5.49023 8.54883C5.49023 8.72461 5.55469 8.87305 5.68359 8.99414C5.81641 9.11523 5.9707 9.17578 6.14648 9.17578Z" fill="#FFB91A"/>
</svg>
